<svg width="128" height="28" viewBox="0 0 128 28" fill="none" xmlns="http://www.w3.org/2000/svg">
  <defs>
    <linearGradient id="g" x1="0" y1="0" x2="1" y2="1">
      <stop offset="0" stop-color="#06b6d4"/>
      <stop offset="1" stop-color="#6366f1"/>
    </linearGradient>
  </defs>
  <rect x="2" y="2" width="24" height="24" rx="6" fill="url(#g)"/>
  <path d="M9 14.5c0-2.9 2.3-5.2 5.2-5.2 1.6 0 3.1.8 4.1 1.9l-1.7 1.7c-.6-.7-1.4-1.2-2.4-1.2-1.7 0-3.1 1.4-3.1 3.1s1.4 3.1 3.1 3.1c1 0 1.8-.4 2.4-1.1l1.7 1.7c-1 1.2-2.5 2-4.1 2-2.9 0-5.2-2.3-5.2-5.2Z" fill="white"/>
  <text x="34" y="19" font-family="Inter,system-ui,-apple-system,Segoe UI,Roboto" font-weight="700" font-size="16" fill="white" opacity="0.0">.</text>
</svg>